<svg width="1440" height="350" viewBox="0 0 1440 350" fill="none" xmlns="http://www.w3.org/2000/svg">
<path d="M1079.99 109C1069.41 109 1059.15 107.632 1049.37 105.055M1079.99 109C1090.58 109 1100.84 107.632 1110.62 105.055M1079.99 109C1069.41 109 1059.15 110.368 1049.37 112.945M1079.99 109C1090.58 109 1100.84 110.368 1110.62 112.945M1079.99 109C1079.99 98.4142 1078.63 88.1441 1076.05 78.3737M1079.99 109C1079.99 119.586 1078.63 129.843 1076.05 139.626M1079.99 109C1079.99 119.586 1081.36 129.843 1083.94 139.626M1079.99 109C1079.99 98.4142 1081.36 88.1441 1083.94 78.3737M1049.37 105.055C1007.71 94.0879 974.912 61.2787 963.945 19.6196M1049.37 105.055C1048.81 92.168 1045.53 79.9911 1040.07 69.0767M1049.37 105.055C1049.43 106.357 1049.46 107.672 1049.46 109C1049.46 110.328 1049.43 111.643 1049.37 112.945M963.945 19.6196C961.368 9.84922 960 -0.420853 960 -11.0066M963.945 19.6196C962.643 19.5539 961.328 19.5276 960 19.5276C958.672 19.5276 957.357 19.5539 956.055 19.6196M963.945 19.6196C976.832 20.1719 989.009 23.4595 999.923 28.9298M960 -11.0066C960 -21.5923 961.368 -31.8493 963.945 -41.6197M960 -11.0066C960 -21.5923 958.632 -31.8493 956.055 -41.6197M960 -11.0066C960 -0.420853 958.632 9.84922 956.055 19.6196M960 -11.0066C949.414 -11.0066 939.144 -9.63902 929.374 -7.06163M960 -11.0066C970.586 -11.0066 980.843 -9.63902 990.626 -7.06163M960 -11.0066C949.414 -11.0066 939.144 -12.3742 929.374 -14.9516M960 -11.0066C970.586 -11.0066 980.843 -12.3742 990.626 -14.9516M963.945 -41.6197C974.899 -83.2788 1007.71 -116.088 1049.37 -127.055M963.945 -41.6197C962.643 -41.554 961.328 -41.5277 960 -41.5277C958.672 -41.5277 957.357 -41.554 956.055 -41.6197M963.945 -41.6197C976.832 -42.172 989.009 -45.4595 999.923 -50.9168M1049.37 -127.055C1059.15 -129.632 1069.41 -131 1079.99 -131M1049.37 -127.055C1049.43 -128.357 1049.46 -129.672 1049.46 -131C1049.46 -132.328 1049.43 -133.643 1049.37 -134.945M1049.37 -127.055C1048.81 -114.168 1045.53 -101.991 1040.08 -91.0767M1079.99 -131C1090.58 -131 1100.84 -129.632 1110.62 -127.055M1079.99 -131C1069.41 -131 1059.15 -132.368 1049.37 -134.945M1079.99 -131C1090.58 -131 1100.84 -132.368 1110.62 -134.945M1079.99 -131C1079.99 -141.586 1078.63 -151.843 1076.05 -161.626M1079.99 -131C1079.99 -120.414 1078.63 -110.157 1076.05 -100.374M1079.99 -131C1079.99 -120.414 1081.36 -110.157 1083.94 -100.374M1079.99 -131C1079.99 -141.586 1081.36 -151.843 1083.94 -161.626M1110.62 -127.055C1152.29 -116.088 1185.1 -83.2788 1196.06 -41.6197M1110.62 -127.055C1111.17 -114.168 1114.45 -101.991 1119.9 -91.0899M1110.62 -127.055C1110.55 -128.357 1110.53 -129.672 1110.53 -131C1110.53 -132.328 1110.55 -133.643 1110.62 -134.945M1196.06 -41.6197C1198.63 -31.8493 1200 -21.5923 1200 -11.0066M1196.06 -41.6197C1197.36 -41.554 1198.67 -41.5277 1200 -41.5277C1201.33 -41.5277 1202.64 -41.554 1203.94 -41.6197M1196.06 -41.6197C1183.17 -42.172 1170.99 -45.4464 1160.09 -50.9036M1200 -11.0066C1200 -0.420853 1198.63 9.84922 1196.06 19.6196M1200 -11.0066C1200 -0.420853 1201.37 9.84922 1203.94 19.6196M1200 -11.0066C1200 -21.5923 1201.37 -31.8493 1203.94 -41.6197M1200 -11.0066C1189.41 -11.0066 1179.16 -9.63902 1169.37 -7.06163M1200 -11.0066C1210.59 -11.0066 1220.84 -9.63902 1230.63 -7.06163M1200 -11.0066C1189.41 -11.0066 1179.16 -12.3742 1169.37 -14.9516M1200 -11.0066C1210.59 -11.0066 1220.84 -12.3742 1230.63 -14.9516M1196.06 19.6196C1185.09 61.2787 1152.28 94.0879 1110.62 105.055M1196.06 19.6196C1183.17 20.1719 1170.99 23.4595 1160.09 28.9167M1196.06 19.6196C1197.36 19.5539 1198.67 19.5276 1200 19.5276C1201.33 19.5276 1202.64 19.5539 1203.94 19.6196M1110.62 105.055C1110.55 106.357 1110.53 107.672 1110.53 109C1110.53 110.328 1110.55 111.643 1110.62 112.945M1110.62 105.055C1111.17 92.168 1114.46 79.9911 1119.9 69.0767M1083.94 78.3737C1082.64 78.4395 1081.32 78.4657 1079.99 78.4657C1078.67 78.4657 1077.35 78.4395 1076.05 78.3737M1083.94 78.3737C1096.83 77.8214 1109 74.5339 1119.9 69.0767M1083.94 78.3737C1094.91 36.7146 1127.71 3.90544 1169.37 -7.06163M1076.05 78.3737C1063.16 77.8214 1050.97 74.5339 1040.07 69.0767M1076.05 78.3737C1065.08 36.7146 1032.29 3.90544 990.626 -7.06163M1040.07 69.0767C1022.73 60.4109 1008.59 46.2746 999.923 28.9298M1040.07 69.0767C1031.42 51.7187 1017.28 37.5825 999.923 28.9298M999.923 28.9298C994.466 18.0154 991.179 5.83848 990.626 -7.06163M990.626 -7.06163C990.561 -8.36348 990.534 -9.67843 990.534 -11.0066C990.534 -12.3347 990.561 -13.6497 990.626 -14.9516M990.626 -14.9516C991.179 -27.8385 994.466 -40.0023 999.923 -50.9168M990.626 -14.9516C1032.29 -25.9186 1065.08 -58.7147 1076.05 -100.374M999.923 -50.9168C1008.58 -68.2747 1022.73 -82.4241 1040.08 -91.0767M999.923 -50.9168C1017.28 -59.5826 1031.42 -73.7188 1040.08 -91.0767M1040.08 -91.0767C1050.98 -96.534 1063.16 -99.8214 1076.05 -100.374M1076.05 -100.374C1077.35 -100.439 1078.67 -100.466 1079.99 -100.466C1081.32 -100.466 1082.64 -100.439 1083.94 -100.374M1083.94 -100.374C1096.83 -99.8214 1109 -96.5471 1119.9 -91.0899M1083.94 -100.374C1094.91 -58.7147 1127.71 -25.9186 1169.37 -14.9516M1119.9 -91.0899C1137.27 -82.4241 1151.42 -68.2747 1160.09 -50.9036M1119.9 -91.0899C1128.57 -73.7188 1142.72 -59.5694 1160.09 -50.9036M1160.09 -50.9036C1165.55 -40.0023 1168.82 -27.8254 1169.37 -14.9516M1169.37 -14.9516C1169.44 -13.6497 1169.47 -12.3347 1169.47 -11.0066C1169.47 -9.67843 1169.44 -8.36348 1169.37 -7.06163M1169.37 -7.06163C1168.82 5.82534 1165.53 18.0023 1160.09 28.9167M1160.09 28.9167C1151.42 46.2747 1137.26 60.424 1119.9 69.0767M1160.09 28.9167C1142.73 37.5694 1128.57 51.7187 1119.9 69.0767M839.993 109C773.718 109 720 55.2692 720 -11.0066M839.993 109C850.579 109 860.849 107.632 870.62 105.055M839.993 109C773.718 109 720 162.731 720 229.006M839.993 109C850.579 109 860.849 110.368 870.62 112.945M839.993 109C839.993 119.586 841.361 129.843 843.938 139.626M839.993 109C839.993 98.4142 841.361 88.1441 843.938 78.3737M720 -11.0066C720 -77.2692 773.718 -131 839.993 -131M720 -11.0066C720 -77.2692 666.269 -131 599.993 -131M720 -11.0066C720 55.2692 666.269 109 599.993 109M839.993 -131C850.579 -131 860.849 -129.632 870.62 -127.055M839.993 -131C773.718 -131 720 -184.731 720 -251.007M839.993 -131C850.579 -131 860.849 -132.368 870.62 -134.945M839.993 -131C839.993 -120.414 841.361 -110.157 843.938 -100.374M839.993 -131C839.993 -141.586 841.361 -151.843 843.938 -161.626M870.62 -127.055C912.292 -116.088 945.101 -83.2788 956.055 -41.6197M870.62 -127.055C871.172 -114.168 874.459 -101.991 879.917 -91.0899M870.62 -127.055C870.554 -128.357 870.528 -129.672 870.528 -131C870.528 -132.328 870.554 -133.643 870.62 -134.945M956.055 -41.6197C943.168 -42.172 930.991 -45.4595 920.077 -50.9036M956.055 19.6196C945.088 61.2787 912.279 94.0879 870.62 105.055M956.055 19.6196C943.168 20.1719 930.991 23.4595 920.077 28.9167M870.62 105.055C870.554 106.357 870.528 107.672 870.528 109C870.528 110.328 870.554 111.643 870.62 112.945M870.62 105.055C871.172 92.168 874.459 79.9911 879.917 69.0767M843.938 78.3737C842.637 78.4395 841.322 78.4657 839.993 78.4657C790.589 78.4657 750.534 38.411 750.534 -11.0066C750.534 -60.411 790.589 -100.466 839.993 -100.466C841.322 -100.466 842.637 -100.439 843.938 -100.374M843.938 78.3737C856.825 77.8214 869.002 74.5339 879.917 69.0767M843.938 78.3737C854.906 36.7146 887.715 3.90544 929.374 -7.06163M843.938 -100.374C856.825 -99.8214 869.002 -96.534 879.917 -91.0899M843.938 -100.374C854.906 -58.7147 887.715 -25.9186 929.374 -14.9516M879.917 -91.0899C897.275 -82.4241 911.424 -68.2747 920.077 -50.9036M879.917 -91.0899C888.569 -73.7319 902.719 -59.5694 920.077 -50.9036M920.077 -50.9036C925.534 -40.0023 928.821 -27.8254 929.374 -14.9516M929.374 -14.9516C929.439 -13.6497 929.466 -12.3347 929.466 -11.0066C929.466 -9.67843 929.439 -8.36348 929.374 -7.06163M929.374 -7.06163C928.821 5.82534 925.534 18.0023 920.077 28.9167M920.077 28.9167C911.424 46.2747 897.275 60.424 879.917 69.0767M920.077 28.9167C902.719 37.5694 888.569 51.7187 879.917 69.0767M1319.99 109C1309.41 109 1299.15 107.632 1289.38 105.055M1319.99 109C1386.27 109 1440 55.2692 1440 -11.0066C1440 -77.2692 1386.27 -131 1319.99 -131M1319.99 109C1386.27 109 1440 162.731 1440 229.006C1440 295.269 1386.27 349 1319.99 349C1253.72 349 1200 295.269 1200 229.007M1319.99 109C1309.41 109 1299.15 110.368 1289.38 112.945M1319.99 109C1319.99 98.4142 1318.63 88.1441 1316.05 78.3737M1319.99 109C1319.99 119.586 1318.63 129.843 1316.05 139.626M1289.38 105.055C1247.71 94.101 1214.91 61.2919 1203.94 19.6196M1289.38 105.055C1288.83 92.168 1285.54 79.9911 1280.08 69.0767M1289.38 105.055C1289.45 106.357 1289.47 107.672 1289.47 109C1289.47 110.328 1289.45 111.643 1289.38 112.945M1203.94 19.6196C1216.83 20.1719 1229.01 23.4595 1239.92 28.9167M1203.94 -41.6197C1214.9 -83.2788 1247.71 -116.101 1289.38 -127.055M1203.94 -41.6197C1216.83 -42.172 1229.01 -45.4595 1239.91 -50.9168M1289.38 -127.055C1299.15 -129.632 1309.41 -131 1319.99 -131M1289.38 -127.055C1289.45 -128.357 1289.47 -129.672 1289.47 -131C1289.47 -132.328 1289.45 -133.643 1289.38 -134.945M1289.38 -127.055C1288.83 -114.168 1285.54 -101.991 1280.08 -91.0899M1319.99 -131C1319.99 -141.586 1318.63 -151.843 1316.05 -161.626M1319.99 -131C1319.99 -120.414 1318.63 -110.157 1316.05 -100.374M1319.99 -131C1309.41 -131 1299.15 -132.368 1289.38 -134.945M1319.99 -131C1386.27 -131 1440 -184.731 1440 -251.007C1440 -317.269 1386.27 -371 1319.99 -371C1253.72 -371 1200 -317.269 1200 -251.007M1316.05 -100.374C1317.35 -100.439 1318.67 -100.466 1319.99 -100.466C1369.41 -100.466 1409.47 -60.411 1409.47 -11.0066C1409.47 38.411 1369.41 78.4657 1319.99 78.4657C1318.67 78.4657 1317.35 78.4395 1316.05 78.3737M1316.05 -100.374C1303.16 -99.8214 1291 -96.534 1280.08 -91.0899M1316.05 -100.374C1305.08 -58.7147 1272.29 -25.9186 1230.63 -14.9516M1316.05 78.3737C1303.16 77.8214 1291 74.5339 1280.08 69.0767M1316.05 78.3737C1305.08 36.7146 1272.29 3.90544 1230.63 -7.06163M1280.08 69.0767C1262.73 60.424 1248.58 46.2747 1239.92 28.9167M1280.08 69.0767C1271.42 51.7187 1257.28 37.5826 1239.92 28.9167M1239.92 28.9167C1234.47 18.0023 1231.18 5.82534 1230.63 -7.06163M1230.63 -7.06163C1230.56 -8.36348 1230.53 -9.67843 1230.53 -11.0066C1230.53 -12.3347 1230.56 -13.6497 1230.63 -14.9516M1230.63 -14.9516C1231.18 -27.8385 1234.47 -40.0023 1239.91 -50.9168M1239.91 -50.9168C1248.58 -68.2747 1262.73 -82.4241 1280.08 -91.0899M1239.91 -50.9168C1257.28 -59.5694 1271.43 -73.7188 1280.08 -91.0899M960 228.993C960 218.408 961.368 208.151 963.945 198.38M960 228.993C949.414 228.993 939.144 227.626 929.374 225.048M960 228.993C970.586 228.993 980.843 227.626 990.626 225.048M963.945 198.38C974.912 156.721 1007.71 123.912 1049.37 112.945M963.945 198.38C962.643 198.446 961.328 198.472 960 198.472C958.672 198.472 957.357 198.446 956.055 198.38M963.945 198.38C976.832 197.828 989.009 194.54 999.923 189.07M1049.37 112.945C1048.81 125.832 1045.53 138.009 1040.07 148.923M1110.62 112.945C1152.28 123.912 1185.09 156.721 1196.06 198.38M1110.62 112.945C1111.17 125.832 1114.46 138.009 1119.9 148.923M1196.06 198.38C1198.63 208.151 1200 218.408 1200 228.993M1196.06 198.38C1197.36 198.446 1198.67 198.472 1200 198.472C1201.33 198.472 1202.64 198.446 1203.94 198.38M1196.06 198.38C1183.17 197.828 1170.99 194.54 1160.09 189.083M1200 228.993V229.007M1200 228.993C1200 218.408 1201.37 208.151 1203.94 198.38M1200 228.993C1189.41 228.993 1179.16 227.626 1169.37 225.048M1200 228.993C1210.59 228.993 1220.84 227.626 1230.63 225.048M1200 229.007C1200 295.269 1146.27 349 1079.99 349C1013.72 349 960 295.269 960 229.007M960 229.007C960 295.269 906.269 349 839.993 349C773.718 349 720 295.269 720 229.006M960 229.007C960 218.408 958.632 208.151 956.055 198.38M1169.37 225.048C1169.44 226.363 1169.47 227.678 1169.47 229.006C1169.47 278.411 1129.41 318.466 1079.99 318.466C1030.59 318.466 990.534 278.411 990.534 229.006C990.534 227.678 990.561 226.363 990.626 225.048M1169.37 225.048C1168.82 212.161 1165.53 199.984 1160.09 189.083M1169.37 225.048C1127.71 214.081 1094.91 181.285 1083.94 139.626M990.626 225.048C991.179 212.161 994.466 199.985 999.923 189.07M990.626 225.048C1032.29 214.081 1065.08 181.285 1076.05 139.626M999.923 189.07C1008.59 171.725 1022.73 157.589 1040.07 148.923M999.923 189.07C1017.28 180.417 1031.42 166.281 1040.07 148.923M1040.07 148.923C1050.97 143.466 1063.16 140.179 1076.05 139.626M1076.05 139.626C1077.35 139.56 1078.67 139.534 1079.99 139.534C1081.32 139.534 1082.64 139.56 1083.94 139.626M1083.94 139.626C1096.83 140.179 1109 143.466 1119.9 148.923M1119.9 148.923C1137.26 157.576 1151.42 171.725 1160.09 189.083M1119.9 148.923C1128.57 166.281 1142.73 180.43 1160.09 189.083M720 229.006C720 162.731 666.269 109 599.993 109M720 229.006C720 295.269 666.269 349 599.993 349C533.718 349 480 295.269 480 229.007M870.62 112.945C912.279 123.912 945.088 156.721 956.055 198.38M870.62 112.945C871.172 125.832 874.459 138.009 879.917 148.923M956.055 198.38C943.168 197.828 930.991 194.54 920.077 189.083M929.374 225.048C929.439 226.363 929.466 227.678 929.466 229.006C929.466 278.411 889.411 318.466 839.993 318.466C790.589 318.466 750.534 278.411 750.534 229.006C750.534 179.589 790.589 139.534 839.993 139.534C841.322 139.534 842.637 139.56 843.938 139.626M929.374 225.048C928.821 212.161 925.534 199.984 920.077 189.083M929.374 225.048C887.715 214.081 854.906 181.285 843.938 139.626M843.938 139.626C856.825 140.179 869.002 143.466 879.917 148.923M879.917 148.923C897.275 157.576 911.424 171.725 920.077 189.083M879.917 148.923C888.569 166.281 902.719 180.43 920.077 189.083M1203.94 198.38C1214.91 156.708 1247.71 123.899 1289.38 112.945M1203.94 198.38C1216.83 197.828 1229.01 194.54 1239.92 189.083M1289.38 112.945C1288.83 125.832 1285.54 138.009 1280.08 148.923M1316.05 139.626C1317.35 139.56 1318.67 139.534 1319.99 139.534C1369.41 139.534 1409.47 179.589 1409.47 229.006C1409.47 278.411 1369.41 318.466 1319.99 318.466C1270.59 318.466 1230.53 278.411 1230.53 229.006C1230.53 227.678 1230.56 226.363 1230.63 225.048M1316.05 139.626C1303.16 140.179 1291 143.466 1280.08 148.923M1316.05 139.626C1305.08 181.285 1272.29 214.081 1230.63 225.048M1230.63 225.048C1231.18 212.161 1234.47 199.984 1239.92 189.083M1239.92 189.083C1248.58 171.725 1262.73 157.576 1280.08 148.923M1239.92 189.083C1257.28 180.417 1271.42 166.281 1280.08 148.923M1049.37 -134.945C1007.71 -145.912 974.912 -178.721 963.945 -220.38M1049.37 -134.945C1048.81 -147.832 1045.53 -160.009 1040.08 -170.923M963.945 -220.38C961.368 -230.164 960 -240.421 960 -251.007M963.945 -220.38C962.643 -220.446 961.328 -220.472 960 -220.472C958.672 -220.472 957.357 -220.446 956.055 -220.38M963.945 -220.38C976.832 -219.828 989.009 -216.541 999.923 -211.083M960 -251.007C960 -317.269 1013.72 -371 1079.99 -371C1146.27 -371 1200 -317.269 1200 -251.007M960 -251.007C960 -317.269 906.269 -371 839.993 -371C773.718 -371 720 -317.269 720 -251.007M960 -251.007C960 -240.421 958.632 -230.164 956.055 -220.38M960 -251.007C949.414 -251.007 939.144 -249.639 929.374 -247.062M960 -251.007C970.586 -251.007 980.843 -249.639 990.626 -247.062M1200 -251.007C1200 -240.421 1198.63 -230.164 1196.06 -220.38M1200 -251.007C1189.41 -251.007 1179.16 -249.639 1169.37 -247.062M1200 -251.007C1210.59 -251.007 1220.84 -249.639 1230.63 -247.062M1200 -251.007C1200 -240.421 1201.37 -230.164 1203.95 -220.38M1196.06 -220.38C1185.09 -178.721 1152.28 -145.912 1110.62 -134.945M1196.06 -220.38C1183.17 -219.828 1170.99 -216.554 1160.09 -211.096M1196.06 -220.38C1197.36 -220.446 1198.67 -220.472 1200 -220.472C1201.33 -220.472 1202.64 -220.446 1203.95 -220.38M1110.62 -134.945C1111.17 -147.832 1114.45 -160.009 1119.9 -170.91M1083.94 -161.626C1082.64 -161.561 1081.32 -161.534 1079.99 -161.534C1078.67 -161.534 1077.35 -161.561 1076.05 -161.626M1083.94 -161.626C1096.83 -162.179 1109 -165.453 1119.9 -170.91M1083.94 -161.626C1094.91 -203.285 1127.71 -236.095 1169.37 -247.062M1076.05 -161.626C1063.16 -162.179 1050.98 -165.466 1040.08 -170.923M1076.05 -161.626C1065.08 -203.285 1032.29 -236.095 990.626 -247.062M1040.08 -170.923C1022.73 -179.576 1008.58 -193.725 999.923 -211.083M1040.08 -170.923C1031.42 -188.281 1017.28 -202.417 999.923 -211.083M999.923 -211.083C994.466 -221.998 991.179 -234.175 990.626 -247.062M990.626 -247.062C990.561 -248.363 990.534 -249.678 990.534 -251.007C990.534 -300.411 1030.59 -340.466 1079.99 -340.466C1129.41 -340.466 1169.47 -300.411 1169.47 -251.007C1169.47 -249.678 1169.44 -248.363 1169.37 -247.062M1169.37 -247.062C1168.82 -234.175 1165.55 -221.998 1160.09 -211.096M1160.09 -211.096C1151.42 -193.725 1137.27 -179.576 1119.9 -170.91M1160.09 -211.096C1142.72 -202.431 1128.57 -188.281 1119.9 -170.91M720 -251.007C720 -317.269 666.269 -371 599.993 -371C533.718 -371 480 -317.269 480 -251.007M720 -251.007C720 -184.731 666.269 -131 599.993 -131M956.055 -220.38C945.088 -178.721 912.279 -145.912 870.62 -134.945M956.055 -220.38C943.168 -219.828 930.991 -216.541 920.077 -211.096M870.62 -134.945C871.172 -147.832 874.459 -160.009 879.917 -170.91M843.938 -161.626C842.637 -161.561 841.322 -161.534 839.993 -161.534C790.589 -161.534 750.534 -201.589 750.534 -251.007C750.534 -300.411 790.589 -340.466 839.993 -340.466C889.411 -340.466 929.466 -300.411 929.466 -251.007C929.466 -249.678 929.439 -248.363 929.374 -247.062M843.938 -161.626C856.825 -162.179 869.002 -165.466 879.917 -170.91M843.938 -161.626C854.906 -203.285 887.715 -236.095 929.374 -247.062M929.374 -247.062C928.821 -234.175 925.534 -221.998 920.077 -211.096M920.077 -211.096C911.424 -193.739 897.275 -179.576 879.917 -170.91M920.077 -211.096C902.719 -202.431 888.569 -188.268 879.917 -170.91M1230.63 -247.062C1272.29 -236.095 1305.08 -203.285 1316.05 -161.626M1230.63 -247.062C1230.56 -248.363 1230.53 -249.678 1230.53 -251.007C1230.53 -300.411 1270.59 -340.466 1319.99 -340.466C1369.41 -340.466 1409.47 -300.411 1409.47 -251.007C1409.47 -201.589 1369.41 -161.534 1319.99 -161.534C1318.67 -161.534 1317.35 -161.561 1316.05 -161.626M1230.63 -247.062C1231.18 -234.175 1234.47 -221.998 1239.91 -211.083M1316.05 -161.626C1303.16 -162.179 1291 -165.466 1280.08 -170.91M1203.95 -220.38C1216.83 -219.828 1229.01 -216.541 1239.91 -211.083M1203.95 -220.38C1214.91 -178.708 1247.71 -145.899 1289.38 -134.945M1239.91 -211.083C1257.28 -202.431 1271.43 -188.281 1280.08 -170.91M1239.91 -211.083C1248.58 -193.725 1262.73 -179.576 1280.08 -170.91M1280.08 -170.91C1285.54 -160.009 1288.83 -147.832 1289.38 -134.945M359.993 109C349.408 109 339.151 107.632 329.367 105.055M359.993 109C370.579 109 380.836 107.632 390.62 105.055M359.993 109C349.408 109 339.151 110.368 329.367 112.945M359.993 109C370.579 109 380.836 110.368 390.62 112.945M359.993 109C359.993 98.4142 358.626 88.1441 356.048 78.3737M359.993 109C359.993 119.586 358.626 129.843 356.048 139.626M359.993 109C359.993 119.586 361.361 129.843 363.938 139.626M359.993 109C359.993 98.4142 361.361 88.1441 363.938 78.3737M329.367 105.055C287.708 94.0879 254.912 61.2787 243.945 19.6196M329.367 105.055C328.815 92.168 325.527 79.9911 320.07 69.0767M329.367 105.055C329.433 106.357 329.459 107.672 329.459 109C329.459 110.328 329.433 111.643 329.367 112.945M243.945 19.6196C241.368 9.84922 240 -0.420853 240 -11.0066M243.945 19.6196C242.643 19.5539 241.328 19.5276 240 19.5276C238.672 19.5276 237.357 19.5539 236.055 19.6196M243.945 19.6196C256.832 20.1719 269.009 23.4595 279.923 28.9298M240 -11.0066C240 -21.5923 241.368 -31.8493 243.945 -41.6197M240 -11.0066C240 -21.5923 238.632 -31.8493 236.055 -41.6197M240 -11.0066C240 -0.420853 238.632 9.84922 236.055 19.6196M240 -11.0066C229.414 -11.0066 219.144 -9.63902 209.374 -7.06163M240 -11.0066C250.586 -11.0066 260.843 -9.63902 270.626 -7.06163M240 -11.0066C229.414 -11.0066 219.144 -12.3742 209.374 -14.9516M240 -11.0066C250.586 -11.0066 260.843 -12.3742 270.626 -14.9516M243.945 -41.6197C254.899 -83.2788 287.708 -116.088 329.367 -127.055M243.945 -41.6197C242.643 -41.554 241.328 -41.5277 240 -41.5277C238.672 -41.5277 237.357 -41.554 236.055 -41.6197M243.945 -41.6197C256.832 -42.172 269.009 -45.4595 279.923 -50.9168M329.367 -127.055C339.151 -129.632 349.408 -131 359.993 -131M329.367 -127.055C329.433 -128.357 329.459 -129.672 329.459 -131C329.459 -132.328 329.433 -133.643 329.367 -134.945M329.367 -127.055C328.815 -114.168 325.527 -101.991 320.083 -91.0767M359.993 -131C370.579 -131 380.836 -129.632 390.62 -127.055M359.993 -131C349.408 -131 339.151 -132.368 329.367 -134.945M359.993 -131C370.579 -131 380.836 -132.368 390.62 -134.945M359.993 -131C359.993 -141.586 358.626 -151.843 356.048 -161.626M359.993 -131C359.993 -120.414 358.626 -110.157 356.048 -100.374M359.993 -131C359.993 -120.414 361.361 -110.157 363.938 -100.374M359.993 -131C359.993 -141.586 361.361 -151.843 363.938 -161.626M390.62 -127.055C432.292 -116.088 465.101 -83.2788 476.055 -41.6197M390.62 -127.055C391.172 -114.168 394.446 -101.991 399.904 -91.0899M390.62 -127.055C390.554 -128.357 390.528 -129.672 390.528 -131C390.528 -132.328 390.554 -133.643 390.62 -134.945M476.055 -41.6197C478.632 -31.8493 480 -21.5923 480 -11.0066M476.055 -41.6197C477.357 -41.554 478.672 -41.5277 480 -41.5277C481.328 -41.5277 482.643 -41.554 483.945 -41.6197M476.055 -41.6197C463.168 -42.172 450.991 -45.4464 440.09 -50.9036M480 -11.0066C480 -0.420853 478.632 9.84922 476.055 19.6196M480 -11.0066C480 -0.420853 481.368 9.84922 483.945 19.6196M480 -11.0066C480 -21.5923 481.368 -31.8493 483.945 -41.6197M480 -11.0066C469.414 -11.0066 459.157 -9.63902 449.374 -7.06163M480 -11.0066C490.586 -11.0066 500.843 -9.63902 510.626 -7.06163M480 -11.0066C469.414 -11.0066 459.157 -12.3742 449.374 -14.9516M480 -11.0066C490.586 -11.0066 500.843 -12.3742 510.626 -14.9516M476.055 19.6196C465.088 61.2787 432.279 94.0879 390.62 105.055M476.055 19.6196C463.168 20.1719 450.991 23.4595 440.09 28.9167M476.055 19.6196C477.357 19.5539 478.672 19.5276 480 19.5276C481.328 19.5276 482.643 19.5539 483.945 19.6196M390.62 105.055C390.554 106.357 390.528 107.672 390.528 109C390.528 110.328 390.554 111.643 390.62 112.945M390.62 105.055C391.172 92.168 394.459 79.9911 399.904 69.0767M363.938 78.3737C362.637 78.4395 361.322 78.4657 359.993 78.4657C358.665 78.4657 357.35 78.4395 356.048 78.3737M363.938 78.3737C376.825 77.8214 389.002 74.5339 399.904 69.0767M363.938 78.3737C374.905 36.7146 407.715 3.90544 449.374 -7.06163M356.048 78.3737C343.162 77.8214 330.971 74.5339 320.07 69.0767M356.048 78.3737C345.081 36.7146 312.285 3.90544 270.626 -7.06163M320.07 69.0767C302.725 60.4109 288.589 46.2746 279.923 28.9298M320.07 69.0767C311.417 51.7187 297.281 37.5825 279.923 28.9298M279.923 28.9298C274.466 18.0154 271.179 5.83848 270.626 -7.06163M270.626 -7.06163C270.561 -8.36348 270.534 -9.67843 270.534 -11.0066C270.534 -12.3347 270.561 -13.6497 270.626 -14.9516M270.626 -14.9516C271.179 -27.8385 274.466 -40.0023 279.923 -50.9168M270.626 -14.9516C312.285 -25.9186 345.081 -58.7147 356.048 -100.374M279.923 -50.9168C288.576 -68.2747 302.725 -82.4241 320.083 -91.0767M279.923 -50.9168C297.281 -59.5826 311.417 -73.7188 320.083 -91.0767M320.083 -91.0767C330.985 -96.534 343.162 -99.8214 356.048 -100.374M356.048 -100.374C357.35 -100.439 358.665 -100.466 359.993 -100.466C361.322 -100.466 362.637 -100.439 363.938 -100.374M363.938 -100.374C376.825 -99.8214 389.002 -96.5471 399.904 -91.0899M363.938 -100.374C374.905 -58.7147 407.715 -25.9186 449.374 -14.9516M399.904 -91.0899C417.275 -82.4241 431.424 -68.2747 440.09 -50.9036M399.904 -91.0899C408.569 -73.7188 422.719 -59.5694 440.09 -50.9036M440.09 -50.9036C445.547 -40.0023 448.821 -27.8254 449.374 -14.9516M449.374 -14.9516C449.44 -13.6497 449.466 -12.3347 449.466 -11.0066C449.466 -9.67843 449.44 -8.36348 449.374 -7.06163M449.374 -7.06163C448.821 5.82534 445.534 18.0023 440.09 28.9167M440.09 28.9167C431.424 46.2747 417.262 60.424 399.904 69.0767M440.09 28.9167C422.732 37.5694 408.569 51.7187 399.904 69.0767M119.993 109C53.7176 109 9.54029e-09 55.2692 9.54029e-09 -11.0066C9.54029e-09 -77.2692 53.7176 -131 119.993 -131M119.993 109C130.579 109 140.849 107.632 150.62 105.055M119.993 109C53.7176 109 9.54029e-09 162.731 9.54029e-09 229.006C9.54029e-09 295.269 53.7176 349 119.993 349C186.269 349 240 295.269 240 229.007M119.993 109C130.579 109 140.849 110.368 150.62 112.945M119.993 109C119.993 119.586 121.361 129.843 123.938 139.626M119.993 109C119.993 98.4142 121.361 88.1441 123.938 78.3737M119.993 -131C130.579 -131 140.849 -129.632 150.62 -127.055M119.993 -131C53.7176 -131 0 -184.731 0 -251.007C0 -317.269 53.7176 -371 119.993 -371C186.269 -371 240 -317.269 240 -251.007M119.993 -131C130.579 -131 140.849 -132.368 150.62 -134.945M119.993 -131C119.993 -120.414 121.361 -110.157 123.938 -100.374M119.993 -131C119.993 -141.586 121.361 -151.843 123.938 -161.626M150.62 -127.055C192.292 -116.088 225.101 -83.2788 236.055 -41.6197M150.62 -127.055C151.172 -114.168 154.459 -101.991 159.917 -91.0899M150.62 -127.055C150.554 -128.357 150.528 -129.672 150.528 -131C150.528 -132.328 150.554 -133.643 150.62 -134.945M236.055 -41.6197C223.168 -42.172 210.991 -45.4595 200.077 -50.9036M236.055 19.6196C225.088 61.2787 192.279 94.0879 150.62 105.055M236.055 19.6196C223.168 20.1719 210.991 23.4595 200.077 28.9167M150.62 105.055C150.554 106.357 150.528 107.672 150.528 109C150.528 110.328 150.554 111.643 150.62 112.945M150.62 105.055C151.172 92.168 154.459 79.9911 159.917 69.0767M123.938 78.3737C122.637 78.4395 121.322 78.4657 119.993 78.4657C70.589 78.4657 30.5342 38.411 30.5342 -11.0066C30.5342 -60.411 70.589 -100.466 119.993 -100.466C121.322 -100.466 122.637 -100.439 123.938 -100.374M123.938 78.3737C136.825 77.8214 149.002 74.5339 159.917 69.0767M123.938 78.3737C134.905 36.7146 167.715 3.90544 209.374 -7.06163M123.938 -100.374C136.825 -99.8214 149.002 -96.534 159.917 -91.0899M123.938 -100.374C134.905 -58.7147 167.715 -25.9186 209.374 -14.9516M159.917 -91.0899C177.275 -82.4241 191.424 -68.2747 200.077 -50.9036M159.917 -91.0899C168.569 -73.7319 182.719 -59.5694 200.077 -50.9036M200.077 -50.9036C205.534 -40.0023 208.821 -27.8254 209.374 -14.9516M209.374 -14.9516C209.439 -13.6497 209.466 -12.3347 209.466 -11.0066C209.466 -9.67843 209.439 -8.36348 209.374 -7.06163M209.374 -7.06163C208.821 5.82534 205.534 18.0023 200.077 28.9167M200.077 28.9167C191.424 46.2747 177.275 60.424 159.917 69.0767M200.077 28.9167C182.719 37.5694 168.569 51.7187 159.917 69.0767M599.993 109C589.408 109 579.151 107.632 569.38 105.055M599.993 109C589.408 109 579.151 110.368 569.38 112.945M599.993 109C599.993 98.4142 598.626 88.1441 596.048 78.3737M599.993 109C599.993 119.586 598.626 129.843 596.048 139.626M569.38 105.055C527.708 94.101 494.912 61.2919 483.945 19.6196M569.38 105.055C568.828 92.168 565.541 79.9911 560.083 69.0767M569.38 105.055C569.446 106.357 569.472 107.672 569.472 109C569.472 110.328 569.446 111.643 569.38 112.945M483.945 19.6196C496.832 20.1719 509.009 23.4595 519.923 28.9167M483.945 -41.6197C494.899 -83.2788 527.708 -116.101 569.38 -127.055M483.945 -41.6197C496.832 -42.172 509.009 -45.4595 519.91 -50.9168M569.38 -127.055C579.151 -129.632 589.408 -131 599.993 -131M569.38 -127.055C569.446 -128.357 569.472 -129.672 569.472 -131C569.472 -132.328 569.446 -133.643 569.38 -134.945M569.38 -127.055C568.828 -114.168 565.541 -101.991 560.083 -91.0899M599.993 -131C599.993 -141.586 598.626 -151.843 596.048 -161.626M599.993 -131C599.993 -120.414 598.626 -110.157 596.048 -100.374M599.993 -131C589.408 -131 579.151 -132.368 569.38 -134.945M596.048 -100.374C597.35 -100.439 598.665 -100.466 599.993 -100.466C649.411 -100.466 689.466 -60.411 689.466 -11.0066C689.466 38.411 649.411 78.4657 599.993 78.4657C598.665 78.4657 597.35 78.4395 596.048 78.3737M596.048 -100.374C583.161 -99.8214 570.998 -96.534 560.083 -91.0899M596.048 -100.374C585.081 -58.7147 552.285 -25.9186 510.626 -14.9516M596.048 78.3737C583.161 77.8214 570.998 74.5339 560.083 69.0767M596.048 78.3737C585.081 36.7146 552.285 3.90544 510.626 -7.06163M560.083 69.0767C542.725 60.424 528.576 46.2747 519.923 28.9167M560.083 69.0767C551.417 51.7187 537.281 37.5826 519.923 28.9167M519.923 28.9167C514.466 18.0023 511.179 5.82534 510.626 -7.06163M510.626 -7.06163C510.561 -8.36348 510.534 -9.67843 510.534 -11.0066C510.534 -12.3347 510.561 -13.6497 510.626 -14.9516M510.626 -14.9516C511.179 -27.8385 514.466 -40.0023 519.91 -50.9168M519.91 -50.9168C528.576 -68.2747 542.725 -82.4241 560.083 -91.0899M519.91 -50.9168C537.281 -59.5694 551.431 -73.7188 560.083 -91.0899M240 228.993C240 218.408 241.368 208.151 243.945 198.38M240 228.993C229.414 228.993 219.144 227.626 209.374 225.048M240 228.993C250.586 228.993 260.843 227.626 270.626 225.048M243.945 198.38C254.912 156.721 287.708 123.912 329.367 112.945M243.945 198.38C242.643 198.446 241.328 198.472 240 198.472C238.672 198.472 237.357 198.446 236.055 198.38M243.945 198.38C256.832 197.828 269.009 194.54 279.923 189.07M329.367 112.945C328.815 125.832 325.527 138.009 320.07 148.923M390.62 112.945C432.279 123.912 465.088 156.721 476.055 198.38M390.62 112.945C391.172 125.832 394.459 138.009 399.904 148.923M476.055 198.38C478.632 208.151 480 218.408 480 228.993M476.055 198.38C477.357 198.446 478.672 198.472 480 198.472C481.328 198.472 482.643 198.446 483.945 198.38M476.055 198.38C463.168 197.828 450.991 194.54 440.09 189.083M480 228.993V229.007M480 228.993C480 218.408 481.368 208.151 483.945 198.38M480 228.993C469.414 228.993 459.157 227.626 449.374 225.048M480 228.993C490.586 228.993 500.843 227.626 510.626 225.048M480 229.007C480 295.269 426.269 349 359.993 349C293.718 349 240 295.269 240 229.007M240 229.007C240 218.408 238.632 208.151 236.055 198.38M449.374 225.048C449.44 226.363 449.466 227.678 449.466 229.006C449.466 278.411 409.411 318.466 359.993 318.466C310.589 318.466 270.534 278.411 270.534 229.006C270.534 227.678 270.561 226.363 270.626 225.048M449.374 225.048C448.821 212.161 445.534 199.984 440.09 189.083M449.374 225.048C407.715 214.081 374.905 181.285 363.938 139.626M270.626 225.048C271.179 212.161 274.466 199.985 279.923 189.07M270.626 225.048C312.285 214.081 345.081 181.285 356.048 139.626M279.923 189.07C288.589 171.725 302.725 157.589 320.07 148.923M279.923 189.07C297.281 180.417 311.417 166.281 320.07 148.923M320.07 148.923C330.971 143.466 343.162 140.179 356.048 139.626M356.048 139.626C357.35 139.56 358.665 139.534 359.993 139.534C361.322 139.534 362.637 139.56 363.938 139.626M363.938 139.626C376.825 140.179 389.002 143.466 399.904 148.923M399.904 148.923C417.262 157.576 431.424 171.725 440.09 189.083M399.904 148.923C408.569 166.281 422.732 180.43 440.09 189.083M150.62 112.945C192.279 123.912 225.088 156.721 236.055 198.38M150.62 112.945C151.172 125.832 154.459 138.009 159.917 148.923M236.055 198.38C223.168 197.828 210.991 194.54 200.077 189.083M209.374 225.048C209.439 226.363 209.466 227.678 209.466 229.006C209.466 278.411 169.411 318.466 119.993 318.466C70.589 318.466 30.5342 278.411 30.5342 229.006C30.5342 179.589 70.589 139.534 119.993 139.534C121.322 139.534 122.637 139.56 123.938 139.626M209.374 225.048C208.821 212.161 205.534 199.984 200.077 189.083M209.374 225.048C167.715 214.081 134.905 181.285 123.938 139.626M123.938 139.626C136.825 140.179 149.002 143.466 159.917 148.923M159.917 148.923C177.275 157.576 191.424 171.725 200.077 189.083M159.917 148.923C168.569 166.281 182.719 180.43 200.077 189.083M483.945 198.38C494.912 156.708 527.708 123.899 569.38 112.945M483.945 198.38C496.832 197.828 509.009 194.54 519.923 189.083M569.38 112.945C568.828 125.832 565.541 138.009 560.083 148.923M596.048 139.626C597.35 139.56 598.665 139.534 599.993 139.534C649.411 139.534 689.466 179.589 689.466 229.006C689.466 278.411 649.411 318.466 599.993 318.466C550.589 318.466 510.534 278.411 510.534 229.006C510.534 227.678 510.561 226.363 510.626 225.048M596.048 139.626C583.161 140.179 570.998 143.466 560.083 148.923M596.048 139.626C585.081 181.285 552.285 214.081 510.626 225.048M510.626 225.048C511.179 212.161 514.466 199.984 519.923 189.083M519.923 189.083C528.576 171.725 542.725 157.576 560.083 148.923M519.923 189.083C537.281 180.417 551.417 166.281 560.083 148.923M329.367 -134.945C287.708 -145.912 254.912 -178.721 243.945 -220.38M329.367 -134.945C328.815 -147.832 325.527 -160.009 320.083 -170.923M243.945 -220.38C241.368 -230.164 240 -240.421 240 -251.007M243.945 -220.38C242.643 -220.446 241.328 -220.472 240 -220.472C238.672 -220.472 237.357 -220.446 236.055 -220.38M243.945 -220.38C256.832 -219.828 269.009 -216.541 279.923 -211.083M240 -251.007C240 -317.269 293.718 -371 359.993 -371C426.269 -371 480 -317.269 480 -251.007M240 -251.007C240 -240.421 238.632 -230.164 236.055 -220.38M240 -251.007C229.414 -251.007 219.144 -249.639 209.374 -247.062M240 -251.007C250.586 -251.007 260.843 -249.639 270.626 -247.062M480 -251.007C480 -240.421 478.632 -230.164 476.055 -220.38M480 -251.007C469.414 -251.007 459.157 -249.639 449.374 -247.062M480 -251.007C490.586 -251.007 500.843 -249.639 510.626 -247.062M480 -251.007C480 -240.421 481.368 -230.164 483.945 -220.38M476.055 -220.38C465.088 -178.721 432.279 -145.912 390.62 -134.945M476.055 -220.38C463.168 -219.828 450.991 -216.554 440.09 -211.096M476.055 -220.38C477.357 -220.446 478.672 -220.472 480 -220.472C481.328 -220.472 482.643 -220.446 483.945 -220.38M390.62 -134.945C391.172 -147.832 394.446 -160.009 399.904 -170.91M363.938 -161.626C362.637 -161.561 361.322 -161.534 359.993 -161.534C358.665 -161.534 357.35 -161.561 356.048 -161.626M363.938 -161.626C376.825 -162.179 389.002 -165.453 399.904 -170.91M363.938 -161.626C374.905 -203.285 407.715 -236.095 449.374 -247.062M356.048 -161.626C343.162 -162.179 330.985 -165.466 320.083 -170.923M356.048 -161.626C345.081 -203.285 312.285 -236.095 270.626 -247.062M320.083 -170.923C302.725 -179.576 288.576 -193.725 279.923 -211.083M320.083 -170.923C311.417 -188.281 297.281 -202.417 279.923 -211.083M279.923 -211.083C274.466 -221.998 271.179 -234.175 270.626 -247.062M270.626 -247.062C270.561 -248.363 270.534 -249.678 270.534 -251.007C270.534 -300.411 310.589 -340.466 359.993 -340.466C409.411 -340.466 449.466 -300.411 449.466 -251.007C449.466 -249.678 449.44 -248.363 449.374 -247.062M449.374 -247.062C448.821 -234.175 445.547 -221.998 440.09 -211.096M440.09 -211.096C431.424 -193.725 417.275 -179.576 399.904 -170.91M440.09 -211.096C422.719 -202.431 408.569 -188.281 399.904 -170.91M236.055 -220.38C225.088 -178.721 192.279 -145.912 150.62 -134.945M236.055 -220.38C223.168 -219.828 210.991 -216.541 200.077 -211.096M150.62 -134.945C151.172 -147.832 154.459 -160.009 159.917 -170.91M123.938 -161.626C122.637 -161.561 121.322 -161.534 119.993 -161.534C70.589 -161.534 30.5342 -201.589 30.5342 -251.007C30.5342 -300.411 70.589 -340.466 119.993 -340.466C169.411 -340.466 209.466 -300.411 209.466 -251.007C209.466 -249.678 209.439 -248.363 209.374 -247.062M123.938 -161.626C136.825 -162.179 149.002 -165.466 159.917 -170.91M123.938 -161.626C134.905 -203.285 167.715 -236.095 209.374 -247.062M209.374 -247.062C208.821 -234.175 205.534 -221.998 200.077 -211.096M200.077 -211.096C191.424 -193.739 177.275 -179.576 159.917 -170.91M200.077 -211.096C182.719 -202.431 168.569 -188.268 159.917 -170.91M510.626 -247.062C552.285 -236.095 585.081 -203.285 596.048 -161.626M510.626 -247.062C510.561 -248.363 510.534 -249.678 510.534 -251.007C510.534 -300.411 550.589 -340.466 599.993 -340.466C649.411 -340.466 689.466 -300.411 689.466 -251.007C689.466 -201.589 649.411 -161.534 599.993 -161.534C598.665 -161.534 597.35 -161.561 596.048 -161.626M510.626 -247.062C511.179 -234.175 514.466 -221.998 519.91 -211.083M596.048 -161.626C583.162 -162.179 570.998 -165.466 560.083 -170.91M483.945 -220.38C496.832 -219.828 509.009 -216.541 519.91 -211.083M483.945 -220.38C494.912 -178.708 527.708 -145.899 569.38 -134.945M519.91 -211.083C537.281 -202.431 551.431 -188.281 560.083 -170.91M519.91 -211.083C528.576 -193.725 542.725 -179.576 560.083 -170.91M560.083 -170.91C565.541 -160.009 568.828 -147.832 569.38 -134.945M1079.99 32.546C1055.96 32.546 1036.45 13.0447 1036.45 -11.0066C1036.45 -35.0447 1055.96 -54.5461 1079.99 -54.5461C1104.04 -54.5461 1123.55 -35.0447 1123.55 -11.0066C1123.55 13.0447 1104.04 32.546 1079.99 32.546ZM839.993 32.546C815.955 32.546 796.454 13.0447 796.454 -11.0066C796.454 -35.0447 815.955 -54.5461 839.993 -54.5461C864.045 -54.5461 883.533 -35.0447 883.533 -11.0066C883.533 13.0447 864.045 32.546 839.993 32.546ZM1319.99 32.546C1295.96 32.546 1276.45 13.0447 1276.45 -11.0066C1276.45 -35.0447 1295.96 -54.5461 1319.99 -54.5461C1344.04 -54.5461 1363.55 -35.0447 1363.55 -11.0066C1363.55 13.0447 1344.04 32.546 1319.99 32.546ZM1079.99 272.546C1055.96 272.546 1036.45 253.045 1036.45 229.007C1036.45 204.955 1055.96 185.454 1079.99 185.454C1104.04 185.454 1123.55 204.955 1123.55 229.007C1123.55 253.045 1104.04 272.546 1079.99 272.546ZM839.993 272.546C815.955 272.546 796.454 253.045 796.454 229.007C796.454 204.955 815.955 185.454 839.993 185.454C864.045 185.454 883.533 204.955 883.533 229.007C883.533 253.045 864.045 272.546 839.993 272.546ZM1319.99 272.546C1295.96 272.546 1276.45 253.045 1276.45 229.007C1276.45 204.955 1295.96 185.454 1319.99 185.454C1344.04 185.454 1363.55 204.955 1363.55 229.007C1363.55 253.045 1344.04 272.546 1319.99 272.546ZM1079.99 -207.454C1055.96 -207.454 1036.45 -226.955 1036.45 -251.007C1036.45 -275.045 1055.96 -294.546 1079.99 -294.546C1104.04 -294.546 1123.55 -275.045 1123.55 -251.007C1123.55 -226.955 1104.04 -207.454 1079.99 -207.454ZM839.993 -207.454C815.955 -207.454 796.454 -226.955 796.454 -251.007C796.454 -275.045 815.955 -294.546 839.993 -294.546C864.045 -294.546 883.533 -275.045 883.533 -251.007C883.533 -226.955 864.045 -207.454 839.993 -207.454ZM1003.54 109C1003.54 133.046 984.046 152.54 960 152.54C935.954 152.54 916.461 133.046 916.461 109C916.461 84.9537 935.954 65.4604 960 65.4604C984.046 65.4604 1003.54 84.9537 1003.54 109ZM1243.54 109C1243.54 133.046 1224.05 152.54 1200 152.54C1175.95 152.54 1156.46 133.046 1156.46 109C1156.46 84.9537 1175.95 65.4604 1200 65.4604C1224.05 65.4604 1243.54 84.9537 1243.54 109ZM1003.54 -131C1003.54 -106.954 984.046 -87.4605 960 -87.4605C935.954 -87.4605 916.461 -106.954 916.461 -131C916.461 -155.046 935.954 -174.54 960 -174.54C984.046 -174.54 1003.54 -155.046 1003.54 -131ZM1243.54 -131C1243.54 -106.954 1224.05 -87.4605 1200 -87.4605C1175.95 -87.4605 1156.46 -106.954 1156.46 -131C1156.46 -155.046 1175.95 -174.54 1200 -174.54C1224.05 -174.54 1243.54 -155.046 1243.54 -131ZM1319.99 -207.454C1295.96 -207.454 1276.45 -226.955 1276.45 -251.007C1276.45 -275.045 1295.96 -294.546 1319.99 -294.546C1344.04 -294.546 1363.55 -275.045 1363.55 -251.007C1363.55 -226.955 1344.04 -207.454 1319.99 -207.454ZM359.993 32.546C335.955 32.546 316.454 13.0447 316.454 -11.0066C316.454 -35.0447 335.955 -54.5461 359.993 -54.5461C384.045 -54.5461 403.546 -35.0447 403.546 -11.0066C403.546 13.0447 384.045 32.546 359.993 32.546ZM119.993 32.546C95.9553 32.546 76.4539 13.0447 76.4539 -11.0066C76.4539 -35.0447 95.9553 -54.5461 119.993 -54.5461C144.045 -54.5461 163.533 -35.0447 163.533 -11.0066C163.533 13.0447 144.045 32.546 119.993 32.546ZM599.993 32.546C575.955 32.546 556.454 13.0447 556.454 -11.0066C556.454 -35.0447 575.955 -54.5461 599.993 -54.5461C624.045 -54.5461 643.546 -35.0447 643.546 -11.0066C643.546 13.0447 624.045 32.546 599.993 32.546ZM359.993 272.546C335.955 272.546 316.454 253.045 316.454 229.007C316.454 204.955 335.955 185.454 359.993 185.454C384.045 185.454 403.546 204.955 403.546 229.007C403.546 253.045 384.045 272.546 359.993 272.546ZM119.993 272.546C95.9553 272.546 76.4539 253.045 76.4539 229.007C76.4539 204.955 95.9553 185.454 119.993 185.454C144.045 185.454 163.533 204.955 163.533 229.007C163.533 253.045 144.045 272.546 119.993 272.546ZM599.993 272.546C575.955 272.546 556.454 253.045 556.454 229.007C556.454 204.955 575.955 185.454 599.993 185.454C624.045 185.454 643.546 204.955 643.546 229.007C643.546 253.045 624.045 272.546 599.993 272.546ZM359.993 -207.454C335.955 -207.454 316.454 -226.955 316.454 -251.007C316.454 -275.045 335.955 -294.546 359.993 -294.546C384.045 -294.546 403.546 -275.045 403.546 -251.007C403.546 -226.955 384.045 -207.454 359.993 -207.454ZM119.993 -207.454C95.9553 -207.454 76.4539 -226.955 76.4539 -251.007C76.4539 -275.045 95.9553 -294.546 119.993 -294.546C144.045 -294.546 163.533 -275.045 163.533 -251.007C163.533 -226.955 144.045 -207.454 119.993 -207.454ZM283.54 109C283.54 133.046 264.046 152.54 240 152.54C215.954 152.54 196.46 133.046 196.46 109C196.46 84.9537 215.954 65.4604 240 65.4604C264.046 65.4604 283.54 84.9537 283.54 109ZM523.54 109C523.54 133.046 504.046 152.54 480 152.54C455.954 152.54 436.461 133.046 436.461 109C436.461 84.9537 455.954 65.4604 480 65.4604C504.046 65.4604 523.54 84.9537 523.54 109ZM283.54 -131C283.54 -106.954 264.046 -87.4605 240 -87.4605C215.954 -87.4605 196.46 -106.954 196.46 -131C196.46 -155.046 215.954 -174.54 240 -174.54C264.046 -174.54 283.54 -155.046 283.54 -131ZM523.54 -131C523.54 -106.954 504.046 -87.4605 480 -87.4605C455.954 -87.4605 436.461 -106.954 436.461 -131C436.461 -155.046 455.954 -174.54 480 -174.54C504.046 -174.54 523.54 -155.046 523.54 -131ZM599.993 -207.454C575.955 -207.454 556.454 -226.955 556.454 -251.007C556.454 -275.045 575.955 -294.546 599.993 -294.546C624.045 -294.546 643.546 -275.045 643.546 -251.007C643.546 -226.955 624.045 -207.454 599.993 -207.454Z" stroke="url(#paint0_linear_45_210)" stroke-opacity="0.25" stroke-width="0.5" stroke-miterlimit="10"/>
<defs>
<linearGradient id="paint0_linear_45_210" x1="720" y1="-91.6897" x2="720" y2="484" gradientUnits="userSpaceOnUse">
<stop stop-color="#688C20"/>
<stop offset="0.65" stop-color="#B4F238" stop-opacity="0.1"/>
</linearGradient>
</defs>
</svg>
